<?xml version="1.0" encoding="UTF-8"?>
<svg id="b" data-name="Layer 2" xmlns="http://www.w3.org/2000/svg" width="2185.768" height="819.766" viewBox="0 0 2185.768 819.766">
  <g id="c" data-name="Layer 1">
    <g>
      <path d="m1007.237,584.529c.394-3.324.654-6.666.645-10.01-.014-5.08,0-10.16,0-15.24,0-3.669.197-7.379-.396-11.018-.576-3.534-2.138-5.326-3.901-8.173-1.764-2.848-2.189-7.002-3.159-10.202-1.07-3.53-2.229-7.032-3.476-10.504-4.991-13.9-11.373-27.304-19.027-39.934-10.497-17.323-23.414-33.242-38.547-46.728-8.763-7.81-18.071-14.521-27.757-21.145-6.318-4.321-14.463-6.774-22.161-6.176-2.765.215-5.291,1.024-8.1.95-4.339-.114-8.678-.141-13.023-.145-7.57-.007-14.739,1.078-22.207,2.288-3.185.516-6.284,1.478-9.465,2.043-6.273,1.115-11.832,3.531-17.622,6.11-3.694,1.646-6.178,4.811-9.711,6.589-9.343,4.703-22.734-1.13-24.53-11.722-.945-5.575.067-12.287.067-17.954v-49.433c0-5.82-1.134-13.262.291-18.978,1.211-4.857,2.545-9.071,6.129-12.569,4.403-4.298,12.555-6.937,18.084-9.359,3.643-1.596,8.851-2.909,11.942-5.366,3.425-2.722,6.125-6.572,8.67-10.062,5.002-6.86,6.633-15.855,7.801-24.164.532-3.783-.298-7.87-.096-11.702.169-3.207,1.357-5.917,1.314-9.243-.105-8.268.005-16.546.005-24.815,0-21.435,1.94-44.287-4.476-64.961-1.963-6.327-3.832-12.102-9.74-15.633-3.847-2.299-8.28-3.734-12.787-4.225-9.924-1.08-21.012-2.442-31.29-1.321-2.206.241-3.954,1.232-6.154,1.385-1.264.088-2.606-.031-3.876-.03-2.57.003-5.139,0-7.709,0-7.404,0-14.81.044-22.215,0-2.593-.015-4.58-.468-7.046-1-2.085-.45-3.993-.372-6.156-.327-7.92.165-15.869.505-23.766-.349-12.068-1.305-24.177-.894-36.313-.894-8.683,0-17.421-.319-26.098-.059-4.705.141-9.212,1.29-13.93,1.236-3.613-.041-7.269-.255-10.87.062-9.59.846-18.706,3.535-28.399,3.389-6.725-.102-13.701.574-20.334,1.656-8.248,1.345-16.444,2.977-24.597,4.756-7.84,1.711-15.152,4.212-22.745,6.692-4.531,1.48-9.657,2.919-13.992,4.787-5.104,2.199-10.673,5.504-15.146,8.856-2.365,1.772-4.403,4.009-5.668,6.685-2.812,5.948-2.303,11.243-2.303,17.764v21.207c0,3.843-.419,8.002.256,11.78,1.073,6.006.558,11.721.835,17.835.663,14.655,4.715,29.238,4.692,43.901-.006,3.444.719,6.831,1.376,10.224.4,2.065,1.092,4.131,1.483,6.225.482,2.582.126,5.358.761,7.858.738-.522,1.8-1.192,2.749-1.151.639,1.122.863,2.343.672,3.664.47,1.929,1.464,3.528,2.982,4.796,1.558,1.742,2.979,3.172,4.903,4.561,3.86,2.786,7.429,1.936,12.12,1.936,8.888,0,17.537-.185,26.062-2.045,1.909-.417,3.709.061,5.563-.192,2.005-.274,3.692-1.152,5.755-1.259,3.686-.19,6.919-.497,10.539-1.361,6.862-1.639,13.807-2.9,20.49-4.878,1.958-.579,2.998-1.992,4.792-2.718,1.665-.674,3.921-.217,5.645-.196,2.263.027,4.56-.153,6.816-.031,1.598.087,2.537.808,4.026,1.081,1.353.248,2.778-.28,4.086.297,1.554.685,3.721,3.842,4.282,5.496,1.777,5.239,1.41,10.677,1.41,16.165,0,6.14.761,12.842-.316,18.901-.307,1.73-.988,3.378-1.201,5.126-.135,1.109-.076,2.191.003,3.301.387,5.409.392,10.646.392,16.079,0,12.696,1.367,25.036,1.374,37.706.007,14.86,0,29.719,0,44.579,0,16.798.008,33.596,0,50.394-.005,10.208-1,19.258-5.145,28.645-1.609,3.643-3.024,6.327-6.103,7.998-1.687.915-3.001,1.874-4.793,2.426-1.421.438-2.519.526-3.847,1.39-2.528,1.645-4.263,4.277-6.79,5.919-3.816,2.48-7.398,5.475-10.96,8.279-3.349,2.635-6.572,5.703-9.778,8.528-3.2,2.819-7.084,4.978-10.365,7.623-4.882,3.936-10.204,7.773-15.169,11.653-5.15,4.025-11.577,6.814-17.063,10.353-6.59,4.252-11.052,10.355-14.635,17.258-4.894,9.427-8.076,20.617-8.382,31.188-.201,6.935.05,13.918.043,20.857-.003,3.062.354,6.269-.256,9.289-.235,1.167-.82,2.224-.954,3.425-.157,1.406.367,2.891.119,4.29-.317,1.786-1.135,3.023-1.236,4.857-.084,1.517.029,3.08.027,4.602-.002,1.441.307,3.197.059,4.602-.376,2.133-1.235,3.473-1.206,5.752.103,7.996-1.487,16.641,1.667,24.272,2.534,6.13,9.461,12.1,15.746,14.111,4.849,1.551,9.338-.016,14.09-1.082,7.474-1.677,14.619-.236,22.164-.154,3.787.041,7.574-.093,11.361-.093,7.68,0,15.36-.008,23.039-.013,6.648-.005,14.207,1.017,20.691-.638,12.762-3.258,26.767-1.649,39.923-1.705,7.266-.031,14.21,2.44,21.326,3.623,2.924.486,5.848,1.142,8.849,1.13,4.044-.016,7.611,1.249,11.697,1.224,7.553-.046,14.734-.612,22.197-1.134,3.478-.244,6.645-2.101,10.092-2.448,2.011-.202,4.164.043,6.185.07,3.935.054,7.872.108,11.805-.058,2.529-.107,3.945-.91,6.065-2.198,2.654-1.613,7.119-3.989,8.487-6.821,2.312-4.787,2.213-12.347.867-17.357-.769-2.862-.28-5.436-.613-8.389-.152-1.344-.743-1.817-1.03-2.828-.466-1.644-.184-3.142-.256-4.858-.115-2.702-1.2-4.321-2.858-6.364-2.034-2.506-4.821-5.582-7.393-7.497-1.359-1.012-3.191-1.297-4.58-2.31-1.421-1.036-2.037-2.458-3.202-3.656-2.167-2.227-4.941-4.275-7.231-6.392-2.025-1.871-4.532-3.179-6.629-4.967-2.309-1.968-4.28-4.617-6.68-6.458-4.506-3.457-9.101-5.581-9.037-11.871.036-3.581-.795-6.396,2.258-8.705,2.223-1.681,4.852-3,7.336-4.201,2.765-1.337,6.666-.595,9.694-.595,2.761,0,7.156-1.231,9.712.112.964.506.926,1.487,1.825,2.091,1.256.844,3.139,1.142,4.514,1.865,2.004,1.053,2.192,1.857,3.233,3.617,1.505,2.544,2.931,5.162,3.538,8.083,1.774,8.53,8.506,15.936,12.742,23.642,1.919,3.49,4.005,6.852,6.964,9.763,3.057,3.007,5.764,6.063,9.049,8.835,4.565,3.851,9.566,7.364,14.286,11.01,6.561,5.067,14.454,6.65,22.027,9.661,5.716,2.272,11.596,4.688,17.437,6.434,2.445.731,4.968,1.673,7.425,2.205,3.46.75,8.418-.055,11.918-.055h37.735c5.082,0,10.532-.592,15.534.239,6.214,1.032,14.059,1.798,20.419.617,7.553-1.403,13.917-7.108,19.841-11.562,4.114-3.093,7.444-6.946,11.595-10.003,4.401-3.242,7.985-6.639,11.885-10.518,5.713-5.681,11.301-11.379,17.05-17.053,3.926-3.876,7.017-9.222,9.634-14.084,2.237-4.155,3.576-9.037,5.48-13.399,1.208-2.769,1.617-5.778,2.356-8.742,1.932-7.75.572-16.269,2.091-24.129.562-2.912.83-5.271.834-8.32.005-4.168.449-7.776,1.104-11.883.531-3.328,1.069-6.694,1.47-10.079Zm-88.921-30.843c-.153,5.496-2.316,10.089-2.794,15.523-.709,8.065-.986,16.505-.61,24.595.23,4.962,1.486,9.777,1.805,14.717.438,6.78-1.664,13.219-3.071,19.769-1.707,7.95-3.606,15.513-5.894,23.309-1.336,4.553-4.145,7.762-7.964,10.689-6.816,5.225-14.53,5.844-22.787,5.844-6.524,0-13.783,1.012-19.892-1.279-5.743-2.153-10.14-5.508-14.667-9.586-2.233-2.012-5.422-4.161-6.78-6.972-.791-1.64-.915-2.826-1.953-4.459-.792-1.247-1.945-2.52-2.608-3.822-3.525-6.924-6.708-15.608-8.139-23.348-1.13-6.118-.254-13.204-.254-19.43v-30.514c0-5.055-.286-10.203,0-15.249.09-1.596.482-2.875.826-4.403.802-3.566.448-7.265.448-10.906,0-1.818-.289-3.928-.048-5.719.249-1.849,1.168-3.335,1.357-5.195.819-8.045,3.264-15.695,6.492-22.837,2.755-6.097,5.439-12.272,10.036-17.205,2.29-2.457,4.046-5.114,6.021-7.672,1.413-1.831,5.096-3.865,7.316-4.781,5.685-2.347,12.276-1.558,18.581-1.558,2.855,0,6.341-.498,8.853.589,2.481,1.074,5.315,2.404,7.644,3.872,4.342,2.737,8.776,6.67,12.104,10.815,4.513,5.62,9.15,12.678,11.788,19.407,2.241,5.715,2.289,10.286,2.911,16.25.186,1.783.866,3.332,1.241,5.058.818,3.76-.024,7.626-.024,11.431,0,4.345.181,8.724.06,13.065Z" stroke-width="0"/>
      <path d="m1397.07,589.08c.071-7.8-1.161-15.484-1.399-23.272-.269-8.813-5.272-16.415-12.927-20.505-3.726-1.991-7.806-3.226-11.948-3.993-2.121-.392-4.263-.526-6.389-.849-1.802-.273-3.604-1.044-5.42-1.151-1.107-.065-2.248.036-3.36.039-2.397.008-4.854.143-7.247.018-1.311-.069-2.471-.54-3.772-.713-1.588-.212-3.17.098-4.755-.026-3.228-.253-6.42-1.498-9.631-1.581-2.169-.056-4.031-.742-6.168-.739-1.682.002-2.938-.69-4.562-.778-4.025-.218-8.129.018-12.162.018-3.547,0-7.097-.049-10.644-.003-3.003.039-5.278-1.57-7.216-3.772-4.382-4.976-6.185-11.941-8.342-17.895-.342-.945-.965-1.655-1.189-2.66-.191-.855-.147-1.428-.533-2.281-.756-1.673-.724-2.851-1.14-4.562-.566-2.325-1.507-4.533-2.145-6.835-.321-1.157-.565-2.324-.676-3.521-.243-2.635-.983-5.178-1.392-7.827-.266-3.987-.835-7.929-1.706-11.828-1.101-2.873-1.946-5.819-2.536-8.838-2.476-12.662-5.006-25.299-7.773-37.902-2.426-11.046-3.803-23.207-8.689-33.5-3.03-6.384-7.753-11.717-9.842-18.566-3.414-11.189-2.475-23.636-4.17-35.161-1.408-9.571-3.08-19.504-4.812-29.018-2.112-11.601-2.142-23.49-4.826-35.136-3.461-15.018-6.835-29.98-10.397-44.994-1.498-6.312-3.987-12.503-6.258-18.561-1.25-3.336-3.184-7.417-5.786-9.992-8.293-8.206-19.694-10.968-29.028-17.624-7.226-5.153-12.505-12.021-19.415-17.497-1.751-1.387-3.908-2.579-5.788-3.829-3.473-2.31-6.531-4.974-9.868-7.484-3.044-2.29-6.178-4.073-9.586-5.478-2.22-.915-4.63-.593-7.034-.593-4.089,0-8.038-.023-12.054.593-2.028.311-4.03.678-6.052.961-1.721.24-3.068,1.027-4.734,1.437-1.806.445-3.69.387-5.503.92-1.854.545-3.6,1.351-5.5,1.805-4.216,1.009-8.204,2.508-12.358,3.716-3.073.894-5.848,2.171-8.85,3.181-1.829.615-3.711.835-5.523,1.531-4.11,1.579-8.395,2.634-12.534,4.125-2.84,1.023-5.903,1.58-8.648,2.732-2.383,1.001-4.836,1.504-7.262,2.355-1.145.401-2.384.487-3.543.843-1.483.455-1.84,1.081-2.879,2.008-3.122,2.783-7.445,4.973-11.034,7.114-10.084,6.015-20.386,12.603-27.698,22.035-3.366,4.342-6.041,9.896-7.552,15.135-2.127,7.378-4.808,14.759-6.423,22.25-1.68,7.792-3.145,15.702-5.658,23.284-2.243,6.77-2.8,14.206-4.777,21.233-2.079,7.387-4.268,14.911-6.023,22.481-1.394,6.013-3.261,11.934-4.19,18.048-.928,6.106-4.031,11.959-4.303,18.113-.23,5.192.474,9.84-1.81,14.795-1.623,3.52-2.786,7.791-3.615,11.503-.769,3.443-3.251,6.158-3.431,9.599-.212,4.064-.453,7.702,1.962,11.003,1.689,2.308,3.578,5.664,5.905,7.411,3.22,2.418,7.501,3.549,10.234,6.43,3.589,3.783,7.982,7.726,11.085,11.908,2.848,3.838,6.272,7.106,9.271,11.036,4.284,5.615,8.813,11.093,12.371,17.201,1.542,2.647,3.483,5.408,5.256,7.806.899,1.217,2.012,2.107,2.783,3.474.99,1.754,1.051,3.774,2.136,5.486,1.66,2.619,3.267,4.066,4.585,7.009,3.471,7.753,7.084,15.773,12.199,22.582,5.063,6.741,5.366,14.862,8.727,22.377,2.165,4.84,3.845,10.408,3.959,15.756.152,7.09,2.498,13.857,2.461,21.038-.033,6.387,0,12.774,0,19.164,0,11.477.523,22.95.319,34.438-.095,5.383-2.115,10.37-2.08,15.729.036,5.447-1.196,11.044-2.154,16.37-1.058,5.882-2.386,11.965-4.01,17.862-.661,2.399-1.35,4.711-1.834,7.172-.57,2.894-1.431,4.677-2.563,7.401-.531,1.277-.462,2.654-.949,3.907-.509,1.309-1.699,2.557-2.379,3.825-1.293,2.412-2.232,4.985-3.586,7.334-2.083,3.613-4.218,6.733-6.682,10.145-2.501,3.464-5.199,8.019-5.692,12.334-.247,2.155.08,4.504.042,6.682-.058,3.317.836,4.112,4.108,4.908,4.439,1.08,10.042.232,14.62.232,3.28,0,6.461.193,9.613-.514,1.919-.43,3.557-.372,5.53-.486,1.888-.109,3.34-.888,5.225-1.056,7.607-.678,15.12-1.999,22.526-3.084,3.717-.545,7.681-.826,11.336-1.75,4.12-1.042,9.705-2.197,12.91-4.913,2.99-2.534,6.363-4.725,7.948-8.449,2.043-4.8,1.779-9.666,1.781-14.774.002-3.674.264-6.76-1.032-10.174-.674-1.776-.77-3.927-1.598-5.559-1.069-2.105-2.058-3.365-2.739-5.76-1.424-5.005-4.901-9.161-5.861-14.373-.73-3.959-1.964-7.643-3.677-11.312-2.586-5.538-3.862-11.73-5.263-17.649-1.357-5.734-3.271-11.688-3.473-17.592-.093-2.723-.946-5.283-1.085-8.002-.136-2.656.014-5.051-.457-7.705-.999-5.629-.449-11.428-.534-17.14-.094-6.327,1.748-12.77,3.618-18.807,1.43-4.616,2.701-8.893,4.666-13.328,1.544-3.485,3.871-6.37,5.87-9.553,1.995-3.177,3.117-6.651,5.696-9.457,2.887-3.142,5.665-6.405,8.776-9.372,7.14-6.809,15.113-12.657,22.93-18.649,4.634-3.552,5.914-3.793,11.834-3.765,5.602.026,12.524-1.101,17.957.175,4.037.948,7.297,5.136,10.022,8.162,4.037,4.483,6.497,9.537,9.243,14.785,3.224,6.164,6.935,11.346,9.043,18.147,2.599,8.384,2.722,17.481,3.82,26.114,1.654,13.005-.594,26.068-2.833,38.849-1.29,7.364-2.914,14.577-4.439,21.872-.622,2.977-.663,5.915-1.127,8.917-.678,4.387-2.341,8.522-2.569,13.002-.808,15.932-5.85,37.55,4.209,51.854,4.697,6.678,17.046,9.637,24.598,10.823,12.922,2.029,25.722,1.718,38.81,1.718h45.305c9.258,0,18.518-.058,27.776.032,7.697.075,15.088-1.55,22.854-1.434,1.497.022,4.858.677,6.232-.239.754-.503.944-1.904,1.546-2.324,2.27-1.586,8.915-.254,11.649-.226,3.474.036,8.788-.075,11.969-1.66,1.081-.538,1.811-1.792,2.658-2.536,2.692-2.363,5.679-4.029,8.202-6.653,7.962-8.282,8.208-19.533,10.469-30.224,1.285-6.078.479-11.875,1.142-17.963.851-7.812,1.279-15.168,1.282-23.088.003-8.603-.046-17.207.032-25.81Zm-246.652-242.628c-.16,1.308-.39,2.596-.732,3.808-1.457,5.157-5.055,9.03-8.086,13.057-1.902,2.527-3.395,5.195-5.458,7.665-2.387,2.857-5.464,4.945-8.461,7.126-3.174,2.31-6.081,5.051-9.719,6.589-2.575,1.089-5.322,1.666-7.941,2.604-2.488.891-4.951,1.337-7.35,2.365-2.262.97-4.237,2.013-6.756,2.126-5.644.252-11.229.208-16.63-1.337-4.62-1.321-9.049-2.668-13.366-4.762-4.095-1.987-8.316-4.456-11.171-8.101-3.259-4.16-7.424-7.618-10.137-12.355-1.239-2.164-2.785-5.17-3.136-7.611-.353-2.46.037-5.299.037-7.787,0-9.722-.072-19.267,1.171-28.934.722-5.613,2.656-10.839,3.795-16.361.914-4.431,2.642-8.4,4.57-12.478,1.233-2.608,1.467-5.209,3.053-7.777,2.072-3.354,4.167-6.72,6.356-10.004.894-1.342,1.97-2.13,2.889-3.308,1.117-1.433,1.259-2.859,2.278-4.316,1.447-2.071,3.698-3.996,5.312-6.017,3.083-3.862,8.009-8.493,12.61-10.535,9.101-4.038,20.882-4.411,30.475-2.363,2.606.556,5.141,2.611,7.386,3.97,1.891,1.144,3.823,2.957,5.17,4.671,2.301,2.929,4.893,5.319,7.163,8.278,3.663,4.774,4.352,11.258,6.778,16.688,1.007,2.253,2.56,4.097,3.424,6.447,1.793,4.875,2.869,10.173,4.11,15.214,1.058,4.296,1.028,8.716,2.265,12.983,1.062,3.665,1.504,6.976,1.509,10.818.006,5.031-.854,9.801-1.055,14.769-.064,1.579-.154,3.238-.353,4.866Z" stroke-width="0"/>
      <path d="m1432.698,706.877c-1.662-.596-3.329-1.268-5.046-1.939-1.662-.65-4.927-1.729-6.166-3.098-1.111-1.227-1.295-4.619-1.359-6.138-.114-2.71-.43-5.903.267-8.547.599-2.274.923-3.752.894-6.261-.041-3.575.37-6.189,1.46-9.524,1.177-3.599,1.157-7.447,1.842-11.188,1.621-8.859,2.772-17.619,4.155-26.423.665-4.233,1.518-8.866,1.781-13.161.199-3.243-.478-6.621.039-9.824,1.072-6.648,2.255-13.68,2.195-20.46-.029-3.215.191-5.714.894-8.736.694-2.981.255-6.34.255-9.38,0-7.983-.054-15.968-.004-23.951.038-6.102-1.612-11.467-3.439-17.219-.635-1.999-1.666-3.781-2.583-5.678-1.257-2.6-2.23-2.93-4.11-4.872-.405-.419-.946-1.798-1.313-2.295-.071-.096-1.194-1.576-1.46-1.787-.983-.777-3.244-1.714-4.482-2.234-3.762-1.578-7.459-.996-11.359-1.687-3.355-.594-6.269-.905-9.754-.894-12.878.039-25.758-.002-38.636-.002-5.625,0-10.486-.15-15.81-1.403-4.487-1.056-7.961-3.604-11.502-6.375-2.58-2.018-4.846-4.02-5.993-7.114-1.169-3.154-1.47-6.152-2.846-9.207-1.735-3.852-2.476-7.989-3.9-12.049-.605-1.723-1.082-3.5-1.834-5.168-1.164-2.585-1.368-5.194-2.554-7.751-3.108-6.699-5.045-13.634-7.255-20.764-1.136-3.665-2.741-7.825-3.134-11.634-.31-3.006-1.689-5.403-2.608-8.24-1.075-3.321-1.066-6.734-2.24-10.072-2.153-6.123-3.339-12.306-5.16-18.416-2.924-9.814-4.78-20.072-6.953-29.899-.836-3.781-2.203-7.635-2.577-11.385-.382-3.838-1.567-7.18-2.296-10.932-.396-2.038-.488-4.375-1.083-6.371-.459-1.537-1.685-2.84-2.073-4.531-.326-1.422-1.094-2.937-1.305-4.114-.299-1.665.12-3.403-.071-5.092-.399-3.519-2.702-7.344-3.755-10.938-1.074-3.665-2.285-7.106-3.189-10.838-.925-3.82-1.938-7.722-3.128-11.475-1.27-4.007-1.429-7.242-1.429-11.475,0-1.816-.598-5.188-.055-6.94.438-1.416,1.822-2.094,2.638-3.332,2.034-3.086,4.069-6.302,6.283-9.268,2.25-3.015,5.2-5.771,7.514-8.892,1.907-2.572,5.023-4.526,6.189-7.611.293-.775.193-1.69.454-2.405.645-1.771,2.18-3.239,3.396-4.801,5.568-7.151,10.514-14.799,16.715-21.442,9.388-10.058,19.499-21.073,30.508-29.36,10.97-8.257,23.023-13.509,34.773-20.432,5.8-3.418,11.508-7.665,17.738-10.282,3.141-1.32,6.638-2.052,9.802-3.293,5.133-2.013,9.69-4.486,15.108-5.628,8.063-1.699,17.334-2.62,25.57-2.891,8.135-.267,16.071-1.522,24.241-1.458,7.482.058,15.172-.673,22.498,1.103,6.503,1.577,13.089,3.065,19.576,4.72,5.468,1.395,12.317,3.069,17.298,5.87,4.321,2.43,7.643,6.555,11.842,9.2,6.137,3.866,12.05,6.996,17.776,11.37,6.396,4.886,10.937,10.352,15.8,16.599,3.533,4.539,7.472,8.966,11.412,13.158,3.541,3.768,8.001,8.292,10.695,12.714,2.72,4.465,3.119,9.786,5.136,14.509,2.529,5.922,4.792,9.834,4.981,16.374.114,3.947,1.538,7.337,1.504,11.39-.025,2.934.005,5.869.005,8.803,0,6.083.014,12.165,0,18.248-.017,7.418,1.227,12.551,7.658,16.896,4.599,3.108,11.933,3.726,17.275,5.093,4.013,1.027,7.508.979,11.835,1.15,2.942.116,5.131,1.124,7.955,1.516,3.524.489,6.703.54,10.263,1.231,4.147.806,8.38.956,11.809,3.46,3.989,2.914,8.943,5.659,12.277,9.312,3.303,3.62,5.23,9.989,6.376,14.621,1.079,4.361,2.482,8.277,2.565,12.809.121,6.667-.034,13.358-.034,20.027,0,5.083.265,10.242.055,15.318-.185,4.453-1.183,8.849-1.484,13.309-.72,10.67-5.942,21.085-11.034,30.274-2.009,3.626-3.466,8.712-6.494,11.657-3.516,3.422-8.696,5.134-13.377,5.789-4.084.572-7.372,1.489-11.6,1.452-4.393-.038-8.788-.014-13.181-.014-5.43,0-10.592.235-15.859-1.131-2.397-.622-4.656-.514-7.109-.61-2.691-.106-5.229-1.222-7.915-1.199-2.483.021-5.215.38-7.656.044-1.577-.217-2.932-.918-4.54-1.021-1.654-.106-3.256.2-4.895-.028-3.469-.482-7.101-1.619-10.607-1.793-5.918-.294-11.603-2.245-17.482-2.716-5.249-.42-10.586-1.798-15.741-2.593-4.624-.713-9.227-.911-13.82-1.842-3.083-.625-6.237.226-9.318-.411-1.78-.368-3.415-.578-5.193-.898-4.4-.792-9.311-1.998-13.216-4.203-1.68-.949-4.519-1.712-5.914-2.964-.969-.869-1.776-2.739-2.389-3.931-1.524-2.966-.89-6.714-.901-9.996-.013-3.917.788-6.914,1.846-10.558.761-2.62,2.126-4.896,3.231-7.499,2.95-6.945,6.806-13.239,8.995-20.601,2.038-6.855,3.461-13.676,3.461-20.819,0-6.371.374-12.972-1.849-18.908-1.296-3.46-2.867-6.948-4.819-10.078-2.009-3.222-3.436-6.23-6.373-8.748-5.038-4.32-10.874-8.148-17.344-9.759-5.358-1.335-10.585-2.509-16.117-2.471-8.049.056-16.652-.969-24.608.065-14.198,1.846-26.161,9.297-36.89,18.446-7.163,6.108-14.495,12.823-20.29,20.288-4.061,5.232-8.268,10.402-9.81,16.943-1.092,4.634-1.898,8.315-1.89,13.091.008,4.828,0,9.657,0,14.485,0,5.078-.09,10.164-.025,15.24.034,2.688.234,5.189.819,7.841.561,2.544,1.241,4.088.813,6.645-.468,2.795-.309,5.48-.014,8.319.632,6.08,2.166,12.099,5.474,17.303,1.901,2.991,3.652,6.518,6.1,9.054,2.274,2.355,5.147,3.953,7.351,6.382,4.083,4.502,8.194,8.763,13.552,11.774,3.414,1.919,7.399,3.056,11.003,4.64,2.812,1.236,5.387,2.127,8.45,2.214,6.05.171,12.555.419,18.566-.143,4.007-.375,8.113-.627,12.103-1.065,3.23-.354,6.358-1.787,9.577-2.424,5.354-1.06,9.616-3.657,14.699-5.435,5.206-1.821,9.391-6.026,14.808-7.154,2.873-.598,6.051-.222,8.986-.222,6.615,0,13.323,1.134,19.471,3.782,5.154,2.22,10.461,3.526,15.806,5.264,5.223,1.699,10.055,4.289,15.191,6.254,4.246,1.624,8.621,2.865,12.916,4.342,3.512,1.208,6.693,3.176,10.194,4.348,3.553,1.189,7.396,1.091,10.992,2.238,2.604.831,5.045,1.615,7.721,2.184,4.914,1.044,10.053,3.223,15.054,3.306,3.749.062,7.509-.025,11.259-.025h16.357c2.729,0,5.468-.067,8.196,0,6.813.168,11.77,4.01,16.319,8.818,7.209,7.621,9.01,13.871,11.023,24.325,2.962,15.383,1.575,32.985-3.196,47.746-1.791,5.543-2.901,12.957-6.869,17.385-2.329,2.599-5.907,4.921-8.595,7.257-7.13,6.195-17.517,8.63-26.79,8.999-9.592.382-16.919-3.549-26.136-5.074-7.746-1.282-17.927-1.251-25.823-.435-10.491,1.084-16.891,10.337-19.196,19.653-1.886,7.622-3.857,15.384-6.607,22.751-2.676,7.169-4.423,15.371-9.213,21.463-2.484,3.159-5.812,5.68-8.3,8.852-2.706,3.449-4.669,7.115-7.931,10.141-3.947,3.661-7.955,7.681-12.452,10.609-4.425,2.882-8.335,7.143-12.83,9.647-1.723.96-5.009,1.279-6.731,2.029-2.427,1.058-4.616,2.479-7.174,3.272-6.881,2.131-15.9,5.037-23.173,4.288-6.123-.631-12.401-2.163-18.59-2.287-3.461-.069-6.611-.931-9.776-2.066Z" stroke-width="0"/>
      <path d="m2000.943,569.405c.032.032.064.064.096.096,4.552,4.506,8.742,10.995,15.689,10.901,17.13-.23,34.28.004,51.412.004,5.994,0,12.061-.262,18.05-.057,5.515.188,11.042,1.691,16.45,2.731,4.589.883,8.307,1.97,11.527,5.58,1.661,1.863,4.218,4.848,4.809,7.185.6,2.371-.085,5.865-.085,8.358,0,3.866.287,7.823.061,11.677-.464,7.929-1.49,15.919-2.173,23.845-.624,7.252-.688,13.386-2.678,20.42-1.046,3.697-2.159,7.187-3.266,10.832-.589,1.938-.576,3.894-1.507,5.715-2.004,3.918-6.112,7.266-9.153,10.361-6.936,7.059-14.99,7.393-24.515,7.401-12.041.01-24.082.009-36.123.006-5.922-.001-11.844-.003-17.766-.004-2.961,0-5.922.016-8.883-.001-5.86-.035-11.642-1.614-17.459-2.376-9.762-1.278-19.28-1.188-29.138-1.188-13.098,0-26.2-.087-39.297.027-11.26.099-24.435-1.134-35.076-4.77-6.313-2.157-9.932-7.66-12.526-13.573-1.698-3.871-2.742-7.347-3.713-11.439-.774-3.265-2.375-6.167-3.448-9.339-4.625-13.677-6.118-28.411-11.228-42.008-3.12-8.303-5.896-16.795-8.52-25.269-2.409-7.777-5.555-15.155-7.992-22.918-2.013-6.413-6.004-12.072-8.671-18.226-2.844-6.562-5.254-13.397-7.99-20.016-3.611-8.737-7.619-17.431-11.941-25.848-1.734-3.377-2.922-6.92-4.722-10.324-1.719-3.251-2.927-7.048-4.424-10.43-1.707-3.855-3.058-8.488-6.473-11.288-3.553-2.914-7.371-2.644-11.643-2.674-3.582-.026-5.159,1.067-8.25,2.38-3.021,1.283-5.942,2.752-8.711,4.418-2.274,1.368-4.501,3.128-6.765,4.521-1.309.805-3.287,1.115-4.52,2.014-.893.651-1.434,1.778-2.315,2.437-2.196,1.645-4.776,2.611-6.992,4.294-4.168,3.166-7.686,4.606-7.422,10.431.09,1.995.351,3.971.487,5.961.072,1.054.101,2.107.115,3.163.071,5.344,1.064,10.398,1.382,15.681.136,2.264-.197,4.571-.063,6.836.125,2.119.918,3.877,1.269,5.937.715,4.195.114,9.008.116,13.274.002,3.488-.237,7.042-.07,10.524.2,4.162,1.507,7.626,1.454,11.875-.079,6.392.606,12.029,1.36,18.26.839,6.931,1.308,13.541,1.315,20.634.002,2.506-.673,5.702.116,8.058.621,1.856,1.219,2.259,1.269,4.708.166,8.162-.031,16.352-.031,24.515,0,3.949.39,8.144.07,12.077-.296,3.631-1.25,7.032-1.423,10.709-.353,7.49-2.024,15.396-4.752,22.401-1.411,3.624-3,6.686-6.752,8.208-3.356,1.361-7.868,3.169-11.435,3.385-4.489.272-9.093-.051-13.6-.051-7.22,0-14.535-.344-21.745.006-7.745.376-14.492,4.288-22.623,4.232-5.501-.037-11.003,0-16.504,0-11.372,0-22.747-.074-34.119,0-9.987.065-17.424-5.784-23.661-13.646-3.02-3.807-4.559-11.192-5.037-15.804-.713-6.878.128-14.229.086-21.161-.02-3.322.68-5.657,1.081-8.729.322-2.467-.302-4.88,1.111-7.14,1.473-2.357,3.343-3.8,5.673-5.155,2.845-1.655,5.705-3.561,9.12-3.749,4.189-.231,10.485-1.311,14.026,1.423,1.637,1.264,2.406,1.924,4.632,1.925,2.4.001,4.523-.983,6.848-1.099,1.928-.096,3.509.03,5.393-.365,2.479-.52,4.793-1.243,7.169-1.849,1.953-.498,4.031.03,6.027-.15,3.246-.293,6.462-1.385,9.692-1.692,1.83-.174,3.306.276,5.007-.422,1.439-.591,2.813-1.375,4.296-1.937,5.819-2.208,12.236-6.092,15.602-11.325,5.416-8.419,6.25-18.541,9.504-27.812.915-2.607,1.357-5.405,2.021-8.105.559-2.271,1.688-4.454,2.042-6.749.762-4.949,1.99-9.831,2.405-14.822.474-5.705,1.612-11.199,1.617-16.99.005-6.434,0-12.869,0-19.303,0-2.815.339-5.882.042-8.676-.271-2.548-1.134-5.043-1.682-7.514-.888-4.004-1.776-7.835-3.11-11.726-1.159-3.382-2.681-5.816-4.772-8.669-.409-.558-.524-1.258-.979-1.851-.396-.517-.999-.909-1.423-1.406-.805-.942-1.15-1.908-2.003-2.807-1.982-2.091-5.536-3.753-5.535-7.097.001-2.452,3.299-5.137,5.07-6.651,2.429-2.076,5.296-3.436,7.924-5.073.819-.51,1.431-1.018,2.224-1.639.596-.466.96-.572,1.62-.964,1.217-.723,2.406-1.655,3.431-2.653.952-.927,1.925-1.858,2.83-2.831.894-.961,1.197-1.926,1.991-2.929.339-.429,1.29-.92,1.511-1.292.186-.313.02-.779.146-1.033.144-.289.663-1.373.732-1.686.385-1.747-.028-3.359-.135-5.08-.25-4.003,2.026-8.111,2.615-12.096.612-4.143,1.651-8.48,2.828-12.501.576-1.97.45-3.749.752-5.742.256-1.69,1.31-3.258,1.593-4.973,1.009-6.126,3.068-12.784,2.962-18.97-.063-3.649.936-6.96.927-10.631-.008-3.107,0-6.214,0-9.321v-18.737c0-5.18-.323-10.632-1.853-15.548-.789-2.535-1.133-5.107-2.06-7.62-.711-1.929-1.084-3.845-1.676-5.779-1.444-4.72-5.119-8.582-7.592-12.756-2.761-4.659-6.999-5.856-11.792-7.667-2.033-.768-4.41-1.174-6.532-1.626-1.976-.421-3.821-1.17-5.791-1.646-2.429-.587-4.96-.793-7.443-1.339-2.354-.517-4.595-1.312-6.998-1.649-1.643-.23-3.772-.37-5.31-.916-1.134-.403-1.963-1.355-3.114-1.75-1.182-.407-1.981-.038-3.162-.179-1.454-.174-1.763-.82-3.036-1.119-.998-.235-2.156.281-3.168.107-4.236-.727-9.183-1.865-12.427-4.712-1.708-1.5-2.699-2.836-3.924-4.712-1.145-1.754-3.374-3.508-4.198-5.391-1.607-3.674.282-9.44-.73-13.263-.519-1.96-.526-4.021-.519-6.228.004-1.245.34-3.011.054-4.206-.209-.872-.932-1.081-1.145-1.972-.564-2.362.025-5.843.05-8.297.031-3.011-1.11-5.425-1.034-8.361.201-7.778-5.231-13.978-8.596-20.524-1.557-3.029-2.694-6.154-4.585-9.009-.767-1.158-1.56-2.288-2.256-3.493-2.641-4.572-3.431-10.07-6.415-14.425-.852-1.243-2.152-1.907-3.045-3.113-1.23-1.662-1.812-3.761-2.993-5.47-1.264-1.829-2.331-3.81-3.581-5.619-1.877-2.719-4.03-5.678-6.498-8.015-3.318-3.142-6.279-6.718-9.828-9.604-3.884-3.157-8.225-6.159-12.56-8.807-1.961-1.198-4.204-2.09-6.27-3.111-2.151-1.063-3.941-2.561-6.046-3.581-1.597-.773-2.993-1.965-4.705-2.706-1.276-.553-2.333-.406-3.6-.829-.889-.296-1.203-1.112-1.924-1.417-1.331-.562-2.776-.753-4.1-1.344-1.129-.503-2.603-1.087-3.831-1.343-1.972-.412-3.761-1.246-5.549-1.791-2.534-.772-5.139-.946-7.638-1.865-1.821-.67-3.242-1.134-5.191-.837-1.69.258-3.223.824-4.964.838-3.46.028-7.004-1.133-10.388-1.796-6.423-1.259-15.215-4.306-13.636-12.345.311-1.582,1.163-2.779,1.785-4.226.845-1.966.777-3.846.827-5.951.063-2.653.753-4.844,2.011-7.177,1.274-2.363,3.25-3.985,5.148-5.725,2.116-1.94,5.417-3.192,8.027-4.445,6.786-3.256,13.017-5.926,20.635-5.932,2.986-.002,5.971,0,8.957,0,7.146,0,14.144.11,21.328.365,5.802.206,11.604,2.135,17.534,2.433,4.818.242,9.26-.256,14.003.791,4.284.946,8.465,1.031,12.748,1.606,6.431.864,12.797,2.481,19.254,3.307,11.1,1.419,22.104,3.329,32.961,6.255,8.473,2.283,16.957,4.811,25.746,5.57,5.002.432,9.803,1.24,14.856,1.204,7.29-.051,14.69-.35,21.947.194,1.834.137,3.285.802,5.071,1.095,2.726.448,5.429.063,8.153.561,3.384.619,6.74,1.828,10.045,2.776,4.274,1.227,8.732,1.563,13.03,2.706,7.697,2.048,15.57,4.461,23.266,6.28,5.139,1.215,10.262,3.076,14.921,5.568,5.862,3.135,7.061,6.283,10.76,11.422,7.921,11.007,10.146,23.994,9.534,37.285-.355,7.701-3.887,15.691-5.444,23.268-1.657,8.062-4.13,15.39-7.101,23.07-2.321,6.001-4.114,12.376-5.754,18.609-.818,3.11-2.407,5.808-3.267,8.793-.831,2.885-1.4,5.38-3.359,7.738-4.84,5.823-5.509,13.499-8.526,20.518-3.269,7.608-5.061,15.048-7.348,22.931-1.795,6.188-3.676,12.73-4.79,18.924-1.525,8.476-1.265,20.892,8.832,22.063,11.244,1.304,19.496-2.208,29.313-6.995,10.7-5.217,21.517-10.424,32.543-14.907,7.909-3.216,16.018-7.263,22.99-12.23,1.201-.856,2.278-1.945,3.62-2.588,3.957-1.896,8.473-1.825,12.51-3.959,8.773-4.638,16.865-10.54,25.509-15.415,5.557-3.135,10.92-5.671,16.053-9.62,6.038-4.645,12.301-9.022,18.635-13.261,5.155-3.451,9.747-6.26,14.257-10.552,2.545-2.422,6.251-4.456,9.448-6.038,6.25-3.093,13.721-1.247,19.833,1.036,3.207,1.198,6.278,1.567,9.379,3.128,4.118,2.072,8.206,4.164,12.098,6.638,6.997,4.447,12.75,9.826,19.192,14.964,6.535,5.213,13.078,8.577,18.796,14.852,2.26,2.48,4.669,4.171,7.38,6.089,2.784,1.969,4.275,4.641,6.78,6.805,3.347,2.892,7.461,4.693,10.941,7.404,1.302,1.014,2.015,2.305,3.199,3.442,1.246,1.196,2.741,2.09,4.044,3.217,1.58,1.367,3.364,2.646,4.896,4.037,1.464,1.33,1.975,2.398,3.648,3.587.778.553,1.706,1.357,2.37,2.028.813.823.926,1.786,1.615,2.671,1.252,1.607,3.415,2.735,4.896,4.21,2.356,2.347,4.267,5.524,4.884,8.849,1.053,5.668-.964,12.306-4.837,16.321-5.539,5.741-11.013,11.962-17.776,16.567-2.166,1.475-4.504,3.001-6.831,4.216-2.216,1.157-4.119,2.71-6.286,3.909-3.229,1.787-7.296,1.733-10.891,1.731-3.324-.001-5.433-.271-8.417-1.77-1.504-.756-2.863-1.822-4.253-2.761-1.166-.788-2.54-1.306-3.671-2.097-1.14-.798-2.073-2.159-3.207-3.068-.999-.801-2.007-1.544-2.982-2.38-2.891-2.478-5.054-5.396-8.482-7.047-6.067-2.923-10.809-8.006-16.55-11.507-2.91-1.774-6.146-3.961-9.632-4.052-2.837-.074-6.304-.454-9.067.198-5.271,1.244-10.873,2.474-15.67,5.098-1.447.791-2.697,1.824-3.987,2.84-4.038,3.178-8.439,5.867-12.598,8.881-5.058,3.665-10.101,7.349-15.142,11.037-4.697,3.436-9.392,7.714-14.496,10.479-.102-.228-.576-.649-.685-.904-1.943.75-3.451,2.696-4.65,4.331-1.266,1.725-1.958,4.093-2.078,6.262-.108,1.952-.479,5.279-.034,7.189.447,1.921,1.942,4.17,2.74,6.147,1.338,3.315,3.113,6.461,4.315,9.83,1.131,3.17,1.934,6.158,3.669,9.085,2.423,4.09,3.131,8.794,4.786,13.184,1.434,3.805,2.952,7.602,4.714,11.267,3.535,7.355,5.913,15.281,9.212,22.832,2.54,5.815,4.031,11.839,6.503,17.621,1.129,2.641,3.156,4.579,4.221,7.27,1.117,2.823,1.848,5.705,3.237,8.439,2.53,4.977,5.416,9.804,7.811,14.85,2.482,5.23,4.049,10.579,6.775,15.734,2.64,4.993,5.1,9.88,8.025,14.712,6.049,9.991,12.092,19.753,20.441,28.047Z" stroke-width="0"/>
      <path d="m578.476,476.301c.032-4.549-1.712-7.271-1.653-11.618.056-4.143-.006-8.292-.006-12.436,0-19.09.009-38.18,0-57.271-.002-4.986-.608-8.548-1.706-13.233-.978-4.174-2.245-9.39-4.241-13.13-1.198-2.244-3.162-4.337-4.422-6.816-1.031-2.028-1.513-3.121-3.672-4.184-.291-.143-.595-.268-.908-.376-3.432-1.181-8.114-.378-11.593-.378-4.424,0-8.847.009-13.271,0-1.917-.004-4.881-.53-6.721-.086-1.585.382-2.33,1.45-3.999,1.807-2.248.481-5.129-.183-7.443-.1-4.787.172-8.869,2.2-13.392,3.105-3.893.779-8.317.218-12.275.216-8.808-.006-17.615-.012-26.423.006-6.32.013-10.887-1.037-16.709-3.358-5.836-2.326-9.774-6.223-13.073-11.541-9.126-14.712-10.425-30.585-10.425-47.658v-47.693c0-16.192-.188-32.395.015-48.585.078-6.208-2.123-12.742-4.483-18.433-1.826-4.404-2.778-9.908-7.778-11.58-2.147-.718-4.861-.871-7.121-1.455-2.928-.757-6.325-.332-9.344-.331-3.028,0-6.288-.356-9.264.113-3.222.507-6.509,2.059-9.612,2.829-8.349,2.072-15.698,5.656-22.666,10.463-4.035,2.784-8.554,4.058-12.333,7.305-4.191,3.601-8.329,7.262-13.073,10.164-6.124,3.747-10.576,8.551-16.041,13.144-4.573,3.844-9.305,6.907-13.592,11.261-5.038,5.117-9.848,10.25-15.794,14.32-6.514,4.459-11.817,10.342-17.181,16.066-5.444,5.81-10.58,12.451-16.451,17.806-3.934,3.588-8.38,6.061-12.504,9.353-7.246,5.784-12.472,13.587-19.552,19.221-8.973,7.141-18.756,13.06-27.621,20.47-11.232,9.388-23.557,17.822-33.948,28.164-12.635,12.575-23.808,27.512-35.406,40.896-12.171,14.044-19.314,34.668-19.254,52.909.034,10.269-.102,20.486,1.565,30.586,1.4,8.485,4.341,16.244,7.007,24.432,1.291,3.964,2.947,6.365,4.88,9.953,1.532,2.844,1.856,5.832,3.621,8.574,3.375,5.244,6.347,11.434,10.363,16.039,5.731,6.572,10.696,14.247,17.617,19.677,2.539,1.992,5.377,2.375,8.118,4.609,4.243,3.458,8.237,7.009,12.176,10.811,8.276,7.985,17.906,14.856,26.834,22.073,7.799,6.304,14.733,13.552,22.401,20.013,15.101,12.726,31.585,23.803,45.347,37.888,8.095,8.286,17.783,16.208,26.966,23.355,7.318,5.696,13.886,12.085,21.029,17.91,3.642,2.97,6.788,5.833,10.719,8.453,3.335,2.223,6.894,4.023,10.087,6.429,5.63,4.241,10.256,10.106,16.386,13.474,4.167,2.29,7.922,4.641,11.942,7.186,4.225,2.676,7.103,6.897,11.417,9.538,4.716,2.887,9.801,4.846,14.744,7.245,12.063,5.855,25.55,7.415,38.697,4.003,5.319-1.381,10.96-2.926,16.077-4.96,4.483-1.782,7.012-5.192,9.325-9.322,2.304-4.115,2.844-6.552,2.825-11.438-.016-4.287,0-8.575,0-12.862v-32.034c0-2.661.02-5.324-.014-7.985-.041-3.19,1.216-5.366,1.517-8.466.569-5.865-.074-12.187-.074-18.108,0-9.755-1.15-19.903,1.78-29.162,2.682-8.475,4.115-19.007,10.731-25.794,5.031-5.16,11.404-8.658,16.469-13.905,2.368-2.453,5.371-3.916,7.824-6.388,2.152-2.169,3.586-4.612,6.669-5.448,1.037-.281,2.092.078,3.169-.308,4.626-1.658,7.625-7.154,11.369-10.081,2.606-2.037,4.37-2.9,7.411-3.744,7.634-2.117,15.227-10.316,20.572-16.028,5.178-5.533,11.485-9.6,16.694-14.881,2.349-2.382,4.064-4.688,6.574-6.885,1.946-1.704,4.348-3.478,5.892-5.564,2.865-3.87,6.47-10.266,7.878-14.969,1.184-3.954.302-9.143.331-13.271Zm-51.348-1.015c-3.155,4.527-6.51,10.273-10.678,13.749-4.267,3.559-7.79,7.684-12.412,10.848-3.554,2.432-6.218,4.933-8.488,8.585-2.239,3.603-4.8,6.353-8.344,8.748-2.38,1.608-4.894,2.993-7.366,4.449-2.2,1.296-3.891,3.057-5.954,4.524-2.363,1.68-4.656,2.473-6.754,4.646-2.88,2.983-6.771,4.744-9.723,7.61-3.159,3.067-7.037,4.933-10.217,7.869-3.375,3.116-7.544,6.489-12.089,7.756-6.872,1.915-13.797,8.517-13.904,15.964-.111,7.752-.005,15.513-.003,23.265,0,2.541-.362,5.388.079,7.887.301,1.704.82,2.919.858,4.656.1,4.466-.009,8.95-.009,13.418,0,5.464-.306,11.017-.048,16.469.126,2.671.926,5.192.998,7.868.078,2.914-.02,5.85-.021,8.765-.002,4.327-.136,7.71-2.042,11.688-1.62,3.381-5.175,5.234-6.13,9.079-.413,1.664-.283,3.091-1.302,4.621-.928,1.394-2.306,2.402-3.319,3.736-1.267,1.667-2.792,2.033-4.673,2.642-2.219.718-4.195,1.959-6.333,2.88-3.403,1.465-7.278,3.137-11.045,3.202-3.398.059-6.157-1.599-8.533-3.911-5.443-5.295-9.212-12.206-14.233-17.909-7.481-8.498-16.113-15.863-25.114-22.695-6.409-4.865-13.161-8.702-19.701-13.357-2.735-1.946-5.603-3.769-8.22-5.867-2.413-1.933-4.43-4.294-6.576-6.635-3.442-3.755-6.823-7.459-10.185-11.058-1.454-1.557-2.606-4.834-11.498-17.301-2.553-.857-5.731-3.475-7.875-5.168-5.226-4.126-9.404-9.084-14.152-13.587-4.832-4.583-10.163-8.119-15.642-11.613-6.048-3.858-11.628-8.001-17.729-11.514-4.622-2.661-9.653-4.714-14.041-7.833-4.71-3.348-10.045-5.693-14.657-9.177-1.625-1.228-3.66-2.323-5.029-3.762-1.281-1.347-1.914-2.87-3.511-4.13-3.132-2.47-6.074-4.92-9.393-7.195-5.506-3.775-10.14-8.772-15.46-12.443-5.259-3.629-10.874-9.1-13.349-15.017-1.671-3.993-3.229-7.884-5.337-11.713-1.22-2.217-1.894-4.293-2.636-6.638-.621-1.963-1.808-3.735-2.403-5.674-.844-2.75-.266-6.467-.266-9.343,0-4.014-.865-9.192.233-13.024.742-2.591,2.269-5.723,3.283-8.204,1.162-2.842,1.396-5.164,2.082-8.135,1.278-5.542,4.912-12.209,8.404-16.62,4.709-5.949,12.199-10.53,18.113-15.154,6.76-5.287,13.362-9.683,19.436-15.77,1.972-1.976,3.798-4.261,6.08-5.885,3.139-2.233,6.634-3.438,9.659-5.953,6.822-5.672,12.758-12.163,19.47-17.933,8.478-7.289,18.322-11.563,23.73-21.746,1.571-2.958.494-2.913,4.201-4.978,3.012-1.678,4.988-3.962,7.598-6.125,4.485-3.717,9.927-6.801,14.826-9.96,5.321-3.431,11.122-6.067,16.373-9.64,2.873-1.954,5.401-4.437,8.267-6.372,2.706-1.827,5.328-2.961,7.716-5.274,4.425-4.286,10.202-9.632,15.696-12.939,7.228-4.351,14.986-8.358,21.502-13.779,1.187-.987,2.222-2.175,3.476-3.079,3.908-2.819,8.81-2.471,13.363-2.466,2.72.003,4.221.535,6.721,1.494,1.304.5,2.128.494,2.983,1.632.874,1.162,1.189,2.792,1.963,4.033.978,1.568,2.741,3.446,3.299,5.167.324.997-.183,2.116.03,3.125.269,1.27.768,1.697.83,3.125.027.63-.197,1.422-.05,2.027.08.329.622.763.656.926.205.999.095,1.979.352,2.987.746,2.927,1.422,5.616,1.404,8.759-.02,3.598.001,7.197.001,10.795,0,3.797-.419,7.858.176,11.601.45,2.835.44,5.705,1.009,8.49.479,2.348.139,4.643.573,6.989.376,2.032.637,3.845.594,5.909-.054,2.606.804,4.849.83,7.426.034,3.341-.018,6.688-.018,10.03,0,1.941-.164,3.962-.041,5.9.139,2.193,1.004,4.272,1.447,6.372.319,1.512.154,3.082.732,4.572.719,1.855,1.705,3.392,2.214,5.381.883,3.452,2.691,6.833,5.133,9.43,2.164,2.302,6.051,3.24,9.035,4.417,1.43.564,2.644,1.08,4.322,1.378,2.251.4,4.116,1.445,6.324,2.093,4.806,1.41,9.474,2.238,14.34,3.154,1.61.303,3.286.312,4.867.761,1.438.408,2.646,1.333,4.176,1.364,3.043.062,6.209-.456,9.313-.41,5.399.079,11.094-.609,16.444.157,2.589.37,4.859,1.183,7.514,1.256,2.73.075,5.09.117,7.788.632,6.074,1.16,12.108.807,18.194,2.33,2.93.733,5.766.518,8.649,1.199,3.002.71,6.205,2.741,9.109,3.814,5.351,1.977,10.62,4.784,12.42,10.654,3.484,11.364.228,23.159.228,34.693,0,8.488,2.42,20.78-2.605,27.991Z" stroke-width="0"/>
      <path d="m2180.778,605.405c-.061-2.405-.272-4.546-.776-6.883-1.256-5.834.378-11.785-.88-17.543-.369-1.692-1.088-3.234-1.328-4.97-.837-6.072-.145-12.682-.133-18.809.012-6.13-.82-12.711-7.093-15.284-6.452-2.647-13.823-5.551-20.506-8.582-6.754-3.063-15.033-2.986-22.504-2.986-10.306,0-19.475-.558-29.564-2.966-3.179-.759-6.306-2.118-9.504-2.703-2.615-.479-5.187.014-7.779-.422-2.564-.432-4.695-1.341-7.363-1.423-2.223-.068-4.648.422-6.823-.072-3.801-.863-6.37-1.362-10.445-1.364-3.563-.002-7.029.525-10.023-1.054-2.657-1.401-5.091-4.437-6.428-7.096-.923-1.835-.872-3.54-2.119-5.277-1.505-2.096-2.812-3.803-4.178-6.044-1.679-2.754-3.692-5.366-5.43-8.128-1.064-1.691-1.785-3.527-2.778-5.261-1.125-1.966-2.899-3.512-3.806-5.553-1.267-2.851-1.4-5.647-2.474-8.582-1.354-3.701-3.114-7.789-4.905-11.305-2.746-5.392-7.533-10.974-8.993-16.622-.415-1.606-.099-3.178-.457-4.765-.308-1.366-1.209-2.14-1.402-3.82-.313-2.734-.765-7.883-.037-10.554,1.715-6.298,10.708-9.601,16.496-6.704,2.883,1.443,3.656,4.866,5.583,7.185,2.531,3.045,5.778,4.031,9.32,5.525,3.365,1.419,6.605,3.572,9.206,5.894,1.918,1.712,5.057,3.773,6.445,5.966,1.122,1.772,1.174,2.529,2.926,3.857,6.607,5.005,17.64,2.049,24.067-1.619,4.787-2.732,8.987-6.307,13.296-9.569,4.728-3.58,7.323-9.201,12.351-12.777,8.493-6.04,15.76-13.929,23.035-21.222,8.098-8.118,17.814-15.361,24.999-24.493,6.896-8.764,16.342-15.87,22.446-25.098,3.883-5.869,9.872-12.417,11.563-19.359.396-1.624.612-3.477.405-5.165-.332-2.713-2.046-4.391-2.802-6.846-1.114-3.619-1.451-6.595-3.602-10.039-.974-1.56-1.746-3.124-2.689-4.79-1.459-2.578-4.077-4.001-5.933-6.301-1.812-2.245-2.746-3.876-5.054-5.716-1.514-1.208-3.132-2.302-4.586-3.606-3.364-3.018-5.318-6.764-8.557-9.715-2.198-2.003-3.485-4.232-5.396-6.44-2.458-2.84-6.317-4.734-9.192-7.19-5.148-4.396-10.834-7.497-16.184-11.434-3.172-2.334-6.077-5.449-8.425-8.578-4.426-5.897-10.872-9.752-16.398-14.824-5.474-5.025-11.127-9.512-17.043-14.1-6.479-5.025-12.398-10.108-20.137-12.805-5.073-1.768-10.953-5.719-15.099-9.09-1.742-1.417-2.894-2.686-4.764-3.917-2.634-1.733-4.78-3.005-7.531-4.481-3.816-2.047-6.552-5.996-10.156-8.436-4.488-3.038-8.909-7.338-13.968-9.543-7.825-3.411-15.215-6.763-22.497-11.151-3.29-1.982-6.538-3.294-10.365-4.475-2.394-.739-4.806-1.221-7.196-1.866-2.539-.686-4.84-2.099-7.43-2.686-2.081-.471-4.286-.411-6.419-.363-3.681.084-4.472,1.136-7.286,3.062-4.588,3.14-9.832,5.911-13.514,10.026-3.822,4.272-7.698,8.754-12.221,12.328-4.221,3.334-8.445,4.813-12.466,8.203-8.748,7.376-17.369,10.576-28.282,12.562-4.433.807-5.216-.154-5.165-4.351.05-4.112.551-7.353,2.179-11.183,1.617-3.805,4.847-6.114,6.387-10.034,2.575-6.557,1.656-13.635,4.222-20.237,1.436-3.696,3.708-6.878,4.771-10.796.96-3.535,2.207-6.924,3.327-10.441,1.87-5.869.547-10.314,1.299-16.277.496-3.937,2.577-7.666,3.826-11.39,1.784-5.32,4.463-12.404,3.012-18.804-1.079-4.761-6.225-11.5-10.007-14.509-6.496-5.167-16.074-5.484-24.222-5.419-8.692.069-15.507-2.785-23.862-5.004-10.073-2.675-19.829-4.999-29.939-7.927-22.208-6.432-44.1-9.385-66.832-14.213-4.413-.937-9.268-2.422-13.691-2.965-5.219-.641-10.961.086-16.246.086-10.913,0-21.871.835-32.207-2.834-2.424-.86-4.586-2.923-7.043-3.553-2.218-.569-4.343-.204-6.58-.612-5.196-.948-10.214-3.816-15.361-5.134-3.804-.975-7.481-.787-11.296-1.501-4.783-.896-9.717-3.252-14.331-4.752-3.951-1.284-7.528-2.797-11.622-3.378-4.162-.59-7.563-.836-11.687-2.045-4.184-1.227-7.689-.773-11.892-1.543-7.95-1.457-15.571-4.211-23.348-6.048-5.089-1.202-11.236-.291-16.426-.291h-20.015c-10.498,0-20.358-1.661-30.851-1.668-9.344-.007-18.687,0-28.031,0-3.187,0-6.8-.483-9.96-.033-3.47.495-5.241,2.874-7.882,5.455-5.043,4.927-8.075,13.16-10.432,19.596-2.99,8.166-4.843,17.12-8.333,25.104-2.528,5.783-7.022,10.008-9.741,15.532-2.736,5.56-3.239,9.959-9.78,11.83-2.53.724-4.826,2.303-7.296,3.249-3.4,1.302-6.435,1.242-9.997,1.243-4.941.002-9.882,0-14.823,0-3.034,0-6.069.012-9.103-.022-2.689-.03-5.028.597-7.679.877-4.511.475-9.135-.116-13.666.045-1.885.067-3.448.846-5.278,1.021-1.738.166-3.064-.087-4.838.488-4.089,1.327-8.478,2.588-12.269,4.648-5.282,2.871-10.389,5.757-15.801,8.421-5.24,2.579-9.207,6.96-14.818,8.863-2.239.759-2.936,1.129-4.333,3.114-1.771,2.517-3.158,4.959-5.737,6.656-4.233,2.785-9.303,4.605-12.313,8.89-2.035,2.897-2.907,3.784-6.744,3.745-6.184-.064-11.298-1.4-16.95-3.747-3.289-1.365-7.258-2.844-10.166-4.837-1.85-1.268-3.238-2.889-4.9-4.345-1.492-1.306-3.289-1.662-4.924-2.613-2.923-1.7-6.208-3.493-9.269-5.011-4.812-2.386-8.332-5.231-12.187-8.925-2.462-2.359-5.574-3.795-8.097-6.13-2.426-2.246-4.856-4.201-7.428-6.247-3.749-2.983-6.809-5.999-11.177-8.188-4.233-2.121-8.971-4.903-12.649-7.917-2.544-2.085-6.37-4.353-9.757-4.747-3.023-.352-6.33.132-9.378.073-4.156-.08-7.236,1.767-10.943,3.531-3.062,1.457-6.359,2.255-9.492,3.671-3.685,1.665-7.599,3.004-11.357,4.498-5.909,2.348-10.658,3.415-16.751,4.351-7.175,1.102-14.235,5.055-21.113,7.337-6.154,2.041-12.397,3.622-18.577,5.517-5.859,1.797-11.053,5.146-16.483,7.775-1.964.951-3.438,2.009-5.586,2.613-1.804.508-3.647.897-5.393,1.6-4.206,1.693-8.251,3.35-12.342,5.165-1.306.579-2.404.471-3.739.862-1.171.342-2.127,1.244-3.318,1.583-1.538.438-3.125.417-4.655.993-1.828.688-3.236,2.026-5.09,2.645-4.409,1.473-8.434,3.713-13.029,4.914-4.127,1.078-8.488,2.073-12.721,2.586-3.032.367-5.586-.397-8.133,1.311-2.306,1.545-4.777,2.407-7.344,3.511-5.336,2.296-10.757,4.683-15.929,7.302-2.536,1.284-5.414,3.059-7.014,5.39-1.077,1.569-1.36,3.448-2.195,5.129-.683,1.374-1.568,2.539-2.149,3.962-.948,2.321-2.2,4.52-3.462,6.754-1.296,2.295-2.296,4.613-3.507,6.974-1.706,3.325-2.776,6.844-3.997,10.366-.485,1.4-1.092,2.57-1.845,3.841-1.233,2.082-1.695,4.13-2.474,6.405-1.266,3.699-2.486,7.395-3.617,11.136-.896,2.965-3.327,5.034-5.653,7.02-3.366,2.874-7.071,2.882-10.715,1.007-2.28-1.173-2.149-1.366-2.893-3.641-.408-1.248-.822-1.537-.867-3.092-.044-1.525.022-3.061.022-4.588-.003-10.422,0-20.845,0-31.267,0-3.431.678-7.873-.208-11.207-.57-2.143-.579-3.821-.692-6.102-.168-3.396-1.098-7.139-1.697-10.471-.545-3.033.037-6.084-.675-9.113-.744-3.164-.475-6.503-.467-9.769.008-3.839-.907-7.389-.971-11.185-.099-5.854-.442-15.17-4.845-19.681-3.253-3.333-6.838-4.377-11.009-5.407-2.421-.598-4.919-1.192-7.452-1.139-3.24.067-5.364-1.121-8.44-1.866-6.158-1.492-12.433-3.109-18.488-4.885-1.781-.522-3.178-1.451-5.075-1.685-1.882-.232-3.68-.369-5.575-.703-2.833-.5-5.622-.177-8.467-.257-.974-.028-1.763-.253-2.696-.382-1.646-.228-3.414.285-5.018-.052-3.513-.738-5.635-1.829-9.384-1.79-6.62.068-15.025,1.276-21.354-.382-6.6-1.73-13.409-1.326-20.422-1.326h-29.406c-4.712,0-9.867-.665-14.505-.088-4.907.61-8.945,1.825-14.014,1.793-6.836-.043-13.674,0-20.51,0-8.65,0-17.3.027-25.954,0-9.734-.03-19.509-1.265-29.118,1.297-3.757,1.002-7.387,1.269-11.167,1.978-4.625.868-9.694.738-14.194,1.933-10.966,2.912-22.033,4.039-33.479,4.039-3.685,0-7.458-.236-11.134-.037-2.509.136-3.893,1.196-6.28,1.71-2.523.543-5.756-.084-8.389-.082-12.566.008-27.229-2.089-39.393.78-5.87,1.385-11.685,2.747-17.515,4.383-2.387.67-4.572.879-7.022,1.354-2.461.477-4.834,2.097-7.257,2.673-4.393,1.045-9.053,1.787-13.573,1.926-1.978.061-2.799.827-4.315,1.255-2.266.641-4.503.047-6.804.49-4.1.789-7.501,2.042-11.966,1.492-4.497-.555-8.1-4.576-12.688-6.04-9.643-3.076-19.898-5.269-30.225-3.224-8.434,1.67-17.717,4.899-25.503,8.431-6.681,3.03-14.417,5.104-20.698,8.748-2.179,1.265-5.226,2.477-7.138,4.097-2.446,2.072-2.441,4.735-4.274,7.114-2.819,3.66-7.18,5.596-10.002,9.555-5.775,1.386-13.91,9.54-19.512,13.438-4.905,3.413-7.848,6.89-11.491,11.61-3.018,3.91-7.518,6.8-11.454,9.815-7.284,5.581-15.579,10.121-23.497,14.712-7.7,4.465-17.206,8.423-23.956,14.139-6.92,5.86-14.358,11.003-21.422,16.725-4.739,3.839-9.761,7.238-14.68,10.871-7.692,5.68-13.972,12.731-21.57,18.505-5.107,3.88-10.704,7.122-15.668,11.177-4.949,4.043-9.288,8.75-14.081,12.963-5.146,4.524-10.478,9.846-16.297,13.526-2.188,1.384-4.488,2.162-6.501,3.895-2.676,2.303-4.575,5.081-7.429,7.245-7.834,5.938-14.111,12.615-20.678,19.872-5.803,6.413-13.14,11.196-19.087,17.457-11.045,11.628-21.673,23.476-33.403,34.645-1.755,1.671-3.478,3.281-5.382,4.789-1.172.928-4.479,2.324-5.158,3.36-1.926,2.935-.784,8.161-1.712,11.774-2.041,7.945-5.592,16.242-10.062,23.064-3.67,5.6-8.975,9.896-12.762,15.425-3.654,5.335-6.298,11.377-9.815,16.71-2.481,3.762-4.662,7.544-7.282,11.208-2.161,3.022-2.663,6.779-3.934,10.308-2.14,5.938-1.757,14.21-.372,20.234,2.108,9.165,5.505,17.069,10.399,25.011,1.45,2.352,2.851,4.87,3.527,7.555.235.933.248,1.702.678,2.605,1.15,2.419,3.358,4.336,4.821,6.565,1.428,2.176,2.837,4.365,4.264,6.543,1.962,2.995,3.827,6.209,5.629,9.29,3.282,5.611,3.719,12.591,7.931,17.612,2.184,2.604,3.754,7.33,5.198,10.423,1.276,2.732,2.768,5.118,4.431,7.636,4.731,7.165,11.729,12.719,18.351,18.04,5.843,4.695,11.903,9.404,17.533,14.387,3.335,2.952,7.493,5.346,11.432,7.459,3.34,1.791,6.645,4.481,10.205,5.66,4.088,1.354,6.03,3.194,8.688,6.529,2.355,2.954,4.244,6.154,6.572,9.11,5.308,6.74,12.418,11.133,19.301,16.039,3.233,2.304,5.693,4.967,8.597,7.459,1.025.879,2.661,1.314,3.782,2.131,2.374,1.729,4.696,4.029,6.898,5.966,4.919,4.325,9.696,8.648,14.891,12.663,6.712,5.188,12.61,11.277,19.333,16.413,3.804,2.906,7.707,5.093,11.514,7.718,5.059,3.488,9.531,7.721,14.697,11.133,4.541,2.999,8.97,6.172,13.507,9.175,2.114,1.399,4.395,2.485,6.555,3.809,2.701,1.654,5.072,3.841,7.831,5.381,13.925,7.772,23.231,21.195,34.07,32.51,3.892,4.063,8.259,6.675,13.153,9.206,4.276,2.211,7.244,5.337,11.065,8.173,2.437,1.809,4.95,3.573,7.186,5.451,2.556,2.148,5.647,3.223,8.513,4.979,2.773,1.7,5.032,3.474,7.905,4.953,1.768.91,3.372,2.047,4.953,3.247,3.524,2.674,7.215,4.739,10.124,8.034,1.237,1.401,2.677,2.62,3.738,4.17,1.068,1.559,1.476,3.526,3.272,4.365,1.448.676,3.179.823,4.722,1.581,2.089,1.026,4.26,1.87,6.491,2.533,8.622,2.563,16.899,4.462,25.448,6.626,7.116,1.801,17.43,1.84,24.912.96,2.27-.267,3.928-1.549,6.141-1.946,2.797-.501,5.479-.123,8.325-.792,4.948-1.163,10.178-.203,15.202-1.162,4.974-.949,9.877-2.275,14.872-3.138,3.012-.521,6.064.236,9.057-.304,2.706-.488,5.009-1.505,7.794-1.67,4.715-.279,9.573.04,14.304.041,2.793,0,5.589-.057,8.381-.035,5.356.042,8.812,2.144,13.972,3.293,5.783,1.288,12.573.304,18.51.304,7.056,0,12.897-.328,19.636-1.611,6.132-1.168,12.303-1.984,18.611-1.947,8.784.052,17.57-.003,26.354-.003,4.876,0,10.85.933,15.632.092,2.214-.389,3.906-1.646,6.167-1.943,2.791-.367,5.354.454,8.179-.326,3.036-.839,4.94-1.261,8.318-1.337,3.156-.071,5.613-1.235,8.566-1.676,3.969-.593,8.354-.155,12.403-.152,5.356.004,10.069-.102,15.179,1.781,4.489,1.654,7.928.856,12.431,1.689,3.661.677,5.572,1.938,9.637,1.89,2.128-.025,4.256-.018,6.385-.018,4.303.002,8.129-.2,12.307-.949,6.892-1.236,13.053,2.02,19.763,3.315,2.194.423,4.586.072,6.807.061,4.469-.023,9.167.52,13.559-.301,4.613-.862,9.197-.911,13.733-2.038,5.388-1.339,10.167-4.121,15.422-5.899,5.148-1.741,11.215-3.951,16.588-4.143,4.351-.156,7.867.67,12.061,1.772,5.646,1.485,11.01,1.244,16.483-.071,5.154-1.238,11.431-.306,16.759-.306h18.954c4.53,0,9.085-.137,13.613-.027,4.826.117,7.405,1.598,11.186,4.219,2.329,1.614,3.929,2.567,6.771,2.708,6.802.338,13.726-.079,20.535-.037,4.42.027,8.194-.52,12.459-1.238,2.82-.475,5.641-.193,8.321-1.509,4.645-2.282,8.195-6.474,12.948-8.614,2.589-1.166,4.918-2.521,7.206-4.055,2.659-1.783,3.353-3.957,6.118-5.522,5.052-2.86,10.179-5.613,14.908-8.968,3.601-2.555,7.871-1.684,12.293-1.684,9.26,0,18.521-.031,27.781,0,3.782.013,6.124-.819,9.621-1.445,2.868-.513,6.745.071,9.66.071,7.364,0,14.738-.111,22.101,0,7.83.117,15.457,1.373,23.409,1.374,10.499,0,21.669,1.28,31.638-2.025,5.73-1.9,11.63-5.945,16.921-8.929,5.43-3.063,9.75-6.992,16.281-6.902,3.159.044,6.01-.482,8.883.995,1.884.968,3.193,2.268,5.429,2.814,2.729.666,5.518-.227,8.243.244,2.894.501,5.775,2.323,8.614,3.185,2.625.797,5.118,1.396,7.898,1.034,2.576-.336,3.05-1.73,5.431-2.51,5.593-1.831,10.82-.719,16.58-1.611,2.37-.367,3.595-1.29,6.105-1.419,2.504-.129,5.06.013,7.569.013h38.191c5.586,0,11.173.038,16.759,0,2.715-.018,4.391.421,6.869,1.068,2.593.677,5.506.306,8.191.306h72.587c8.138,0,15.806-.75,23.432,2.129,2.756,1.04,5.34,1.061,8.202,1.425,8.026,1.023,16.604,5.328,23.664,8.843,4.938,2.459,11.765,1.34,17.447,1.34,13.717,0,28.27,1.318,41.523-1.684,8.318-1.884,15.646-5.268,24.444-5.185,5.983.057,10.397-2.294,15.422-5.495,4.818-3.069,9.984-6.053,15.111-8.583,2.746-1.354,5.393-2.75,8.243-3.781,2.177-.788,4.583-2.435,6.869-2.814,2.386-.396,7.377-.547,9.616.306,2.258.86,4.605,2.86,6.94,3.877,2.075.904,3.776,1.602,6.113,2.063,2.481.489,5.061.175,7.553.618,2.406.428,5.127,2.104,7.174,2.513,2.562.511,5.273.304,7.937.306,5.037.003,10.074,0,15.111,0,4.995,0,10.097.314,15.08.032,4.058-.23,7.508-1.429,11.708-1.401,3.307.022,6.615-.005,9.922-.005,7.133,0,13.594-1.37,20.682-1.374,5.479-.003,10.071-1.072,15.385-1.342,3.315-.168,6.293-1.286,9.648-1.401,3.29-.112,6.6-.005,9.892-.005h17.828c6.176,0,12.86.886,18.921.07,3.395-.457,6.109-1.474,9.617-1.444,3.901.034,7.803,0,11.704,0,4.004,0,8.058.181,12.058.032,4.586-.171,8.964-1.781,13.319-3.156,5.849-1.846,14.063,1.219,19.035-2.716,3.332-2.638,5.973-6.068,8.216-9.609,1.237-1.953.848-2.22,3.053-3.779.797-.564,1.581-1.325,2.437-1.787,2.305-1.244,4.415-.952,7.174-.965,2.465-.012,4.726-.353,6.935,1.002,1.503.921,2.622,2.22,4.06,3.115,2.334,1.451,4.419,1.238,6.519,3.097,1.486,1.315,2.469,1.755,4.129,2.708,1.64.942,3.168,2.54,4.796,3.51,2.076,1.237,4.106,1.093,6.23,1.948,4.333,1.745,6.122,6.385,11.291,6.632,4.668.222,10.647-1.197,15.182-.103,1.673.404,2.121,1.224,4.019,1.477.814.108,1.923-.026,2.779-.032,2.747-.019,5.495,0,8.243,0h15.111c3.625,0,6.251.179,9.621,1.068,2.646.698,5.323.009,8.003.611.916.206,1.629.92,2.95,1.1,1.084.148,2.361-.027,3.466-.032,2.518-.011,5.037,0,7.556,0s5.752-.521,8.211-.071c3.201.586,5.612,1.473,8.975,1.442,4.788-.043,9.587-.057,14.374-.002,3.383.039,5.71-1.179,8.899-1.382,2.958-.188,6.023-.035,8.992.009,2.894.043,4.166-.964,6.874-1.44,2.64-.464,5.215-.086,7.761.563,5.48,1.398,11.008.748,16.695.748,1.917,0,4.445.453,6.324.053,1.53-.326,1.827-1.016,3.748-1.096.831-.035,1.709.019,2.547.024,12.57.065,25.144.034,37.714,0,7.323-.02,14.134,2.071,21.413,2.039,6.634-.029,13.269.004,19.904,0,5.875-.003,11.242-.45,16.568-3.062,1.33-.652,2.928-1.11,4.134-1.983.981-.71,1.605-1.883,2.578-2.64,1.87-1.454,4.417-2.189,6.541-3.274,2.349-1.2,4.075-1.683,6.141-3.344,1.382-1.112,2.911-1.92,4.31-2.98,3.615-2.739,4.668-6.688,5.861-10.744.74-2.516.604-5.164,1.246-7.653.192-.745.692-1.192.845-2.019.232-1.248-.337-2.623-.105-3.878.425-2.306,1.089-3.859,1.069-6.369-.016-1.887-.405-4.251-.049-6.111.283-1.479.904-2.539,1.072-4.054.092-.826.027-1.25.227-2.039.556-2.195.601-3.805.769-6.12.174-2.385,1.038-4.416,1.067-6.91.028-2.421-.536-5.322-.076-7.665.912-4.651,1.646-9.324,3.088-13.968,1.705-5.491,4.487-10.893,5.914-16.595.817-3.267,1.415-6.587,2.012-9.914.668-3.72,1.663-7.616,2.09-11.365.704-6.186.47-12.427.314-18.636Zm-29.012-2.699c0,5.469-.477,10.519-.938,15.808-.152,1.741-.907,3.261-1.102,4.986-.191,1.693.13,3.278-.166,4.988-.371,2.148-.444,4.573-.97,6.657-.61,2.417-1.626,4.395-1.812,7.048-.122,1.738-.466,2.941-.75,4.608-.487,2.85-.236,5.223-1.431,7.971-2.267,5.215-3.828,11.826-3.748,17.617.148,10.686-4.717,22.011-8.19,32.063-2.487,7.198-5.744,15.058-13.627,17.841-2.536.895-5.431,1.375-7.964,1.992-1.64.4-3.319.915-4.963,1.261-.943.198-2.042-.194-3.001-.074-.969.121-1.499.648-2.183.795-1.693.364-3.46-.015-5.154.306-.94.178-1.363.796-2.543.934-1.089.128-1.902-.093-3.001.194-2.132.557-3.659.77-5.956.772-5.046.005-10.091,0-15.137,0-7.41,0-14.415.988-21.785.993-5.875.004-11.75,0-17.625,0h-31.494c-4.262,0-8.503-.192-12.699.655-7.326,1.479-14.849.91-22.304,1.019-4.312.063-8.356-1.124-12.689-1.214-5.301-.11-10.538-1.864-15.838-2.536-9.19-1.166-18.339-1.005-27.496-2.224-3.645-.485-7.144-.052-10.79-.214-3.951-.176-7.671-1.538-11.67-1.405-.695.023-1.388.151-2.084.137-2.049-.043-3.867-.782-5.823-1.279-1.715-.436-3.326-1.003-4.988-1.628-6.604-2.484-13.181-3.448-17.245-9.734-.797-1.233-1.539-2.492-2.128-3.839-.891-2.037-1.343-4.209-2.066-6.303-2.414-6.988-7.49-11.384-12.313-16.685-1.372-1.508-2.02-3.477-3.436-4.926-1.194-1.222-2.94-1.72-4.469-2.433-3.24-1.512-7.04-1.207-10.423-.498-2.189.459-4.418.266-6.486,1.217-4.67,2.147-9.841,4.075-12.935,8.437-2.609,3.677-4.218,8.522-5.135,12.913-.654,3.128-.903,6.321-1.793,9.401-.613,2.122-1.465,4.16-2.431,6.143-3.704,7.609-10.304,11.525-18.399,13.507-3.962.97-8.021,1.33-12.089,1.441-4.997.136-9.249,2.315-14.28,3.047-6.489.943-13.425.69-19.743,2.155-4.977,1.154-11.072.278-16.234.278h-21.568c-6.256,0-12.276.844-18.507,1.223-4.219.256-8.252,2.36-12.483,2.578-19.905,1.025-40.145-.129-60.073-.049-7.378.03-15.718-3.009-21.601-7.163-5.485-3.873-5.586-12.95-13.43-12.852-6.38.08-13.609-1.429-19.08,2.155-3.223,2.111-6.209,3.987-9.697,5.662-3.084,1.482-5.686,3.93-8.445,5.943-6.124,4.467-12.235,8.147-19.084,11.572-6.533,3.266-13.337,5.903-19.881,9.125-7.796,3.839-15.229,3.079-23.949,3.079-5.54,0-11.71.755-17.149-.278-6.682-1.27-13.833-1.873-20.358-3.721-5.247-1.486-10.599-5.85-14.98-8.55-2.639-1.626-6.907-4.523-10.046-5.03-1.951-.315-4.274.059-6.257.06-5.363.004-9.818,1.836-15.012,2.536-5.876.792-11.491,2.506-17.492,2.469-8.36-.051-16.722,0-25.083,0h-19.654c-7.307,0-15.747,1.184-22.867-.278-8.115-1.667-16.754-.973-25.06-.973h-21.547c-4.019,0-8.24.405-12.202-.278-2.659-.459-4.761-.996-7.512-.973-2.849.024-6.075.458-8.824-.278-2.51-.673-3.708-.99-6.441-.973-10.631.067-21.629-.834-32.218.036-2.97.244-6.14,2.316-9.066,2.11-1.375-.097-2.211-.555-3.089-1.631-1.411-1.729-1.329-4.155-2.667-6.001-1.925-2.657-5.168-3.797-7.849-5.476-3.176-1.989-6.019-3.867-9.93-4.083-6.004-.331-14.656.372-18.404,5.913-1.242,1.836-1.65,4.126-2.696,6.069-3.391,6.301-9.173,11.989-15.856,14.335-2.143.752-4.437,1.966-6.842,2.528-1.601.374-3.368.998-5.005,1.28-1.222.21-2.613-.413-3.819-.129-1.025.241-1.35,1.133-2.373,1.381-1.237.299-3.139-.061-4.445-.065-2.92-.008-5.839.008-8.759,0-3.167-.009-5.164.791-8.134,1.316-1.356.24-2.994-.103-4.38-.077-1.866.035-2.63.541-4.38.985-2.436.618-4.974,1.056-7.443,1.594-2.015.439-4.326-.518-6.35-.129-1.341.258-2.376,1.152-3.725,1.381-1.449.246-2.917-.279-4.382.042-1.346.295-2.431.908-3.814,1.145-8.198,1.399-16.276,1.23-24.646,1.251-4.177.011-7.902-.749-11.99-1.251-3.053-.375-5.387-1.291-8.73-1.247-3.255.043-4.842-.491-7.72-1.568-2.579-.965-4.239-2.053-6.906-2.203-5.862-.331-12.5,1.576-17.812,4.085-5.727,2.705-11.56,6.182-16.889,9.316-6.352,3.735-12.647,8.041-19.778,10.248-6.57,2.033-12.284,3.742-19.186,1.804-11.113-3.12-21.634-2.324-33.363-2.379-5.582-.026-10.559-2.045-16.197-2.004-5.644.041-11.29-.007-16.934-.007-3.709,0-7.512.246-11.214.046-4.289-.231-7.626-1.847-12.048-2.006-5.085-.183-9.535-2.679-14.146-4.619-3.866-1.627-6.759-1.441-11.012-1.464-4.146-.022-5.619.638-8.997,2.065-1.092.461-2.503-.361-3.686.337-1.168.689-1.68,2.392-2.806,3.181-2.206,1.546-6.094,2.153-8.65,3.465-3.269,1.678-5.44,2.888-9.051,3.063-6.807.332-13.742-.043-20.561-.046-9.857-.005-18.674-2.044-28.263-3.575-9.645-1.54-20.082-.342-29.862-.401-7.428-.044-14.499-1.92-21.928-2.104-6.006-.149-12.046.047-18.056.047h-36.698c-3.572,0-7.145.024-10.717-.02-4.947-.061-8.68,1.556-13.423,2.135-2.974.363-6.156-.688-9.111-.208-2.802.456-5.115,1.669-7.935,2.173-3.549.634-7.087,1.39-10.662,2.058-3.104.58-7.249-.07-10.465-.097-5.36-.045-8.979,1.518-14.184,2.108-17.341,1.965-35.751-2.554-52.759.902-3.797.772-6.971,1.067-10.993,1.013-4.023-.054-6.474,1.582-10.053,2.115-6.095.907-11.804,1.894-18.16,1.9-3.766.004-7.553.598-11.305.039-2.962-.441-5.659-1.59-8.517-2.384-6.26-1.74-12.375,2.255-18.61.751-1.801-.434-2.901-1.741-4.417-2.657-2.397-1.447-4.875-2.61-7.242-4.211-2.26-1.529-4.788-2.451-6.998-3.946-1.522-1.029-3.321-2.538-4.726-3.755-.79-.683-1.251-1.596-2.097-2.257-.942-.737-1.958-.597-2.863-1.185-1.789-1.161-3.007-2.854-4.857-3.971-2.042-1.233-3.957-2.439-5.558-4.256-2.133-2.422-4.337-4.927-6.626-7.214-8.19-8.184-19.689-12.377-29.05-19.144-4.937-3.569-9.964-6.075-15.184-8.897-5.224-2.823-6.012-9.523-10.324-13.243-7.36-6.348-15.995-11.213-24.75-15.396-4.179-1.997-8.103-3.938-12.144-6.122-2.393-1.293-4.672-1.884-6.883-3.558-1.773-1.342-2.793-2.673-4.82-3.723-3.871-2.005-7.764-3.428-11.044-6.477-2.976-2.766-5.268-6.394-8.059-9.355-4.844-5.139-10.016-10.373-16.115-14.536-2.965-2.024-5.634-3.924-8.54-6.071-2.727-2.015-6.96-3.222-9.355-5.541-2.042-1.976-3.202-4.285-5.584-6.16-1.5-1.18-3.154-1.827-4.577-3.188-4.808-4.6-9.418-9.278-14.3-13.75-1.705-1.562-3.246-3.085-5.051-4.55-1.853-1.504-3.462-3.225-5.15-4.903-1.51-1.5-2.34-2.823-3.558-4.459-1.485-1.993-3.613-3.273-5.388-4.958-1.156-1.096-2.128-2.599-3.419-3.518-1.999-1.423-4.434-2.575-6.512-3.962-3.207-2.139-6.611-3.808-9.442-6.262-2.699-2.34-5.495-5.113-8.359-7.327-2.795-2.16-5.131-4.845-7.878-7.106-3.258-2.681-6.092-6.068-9.13-8.939-1.591-1.504-3.13-2.883-4.683-4.48-2.309-2.376-5.415-3.838-8.002-5.9-2.502-1.993-4.081-4.582-6.71-6.531-2.027-1.503-3.744-2.714-4.805-4.957-3.296-6.967-9.633-11.972-14.261-17.996-2.424-3.155-4.458-6.547-6.882-9.688-2.772-3.592-5.47-7.149-7.732-11.038-1.142-1.963-1.618-4.8-2.445-6.979-1.031-2.718-1.972-5.639-2.504-8.499-.631-3.388-.912-8.562-.275-11.916.69-3.632,1.942-7.351,2.055-11.121.146-4.869.723-9.094,1.958-13.835,1.049-4.025,1.015-7.735.991-11.89-.024-4.11,1.307-6.015,3.717-9.109,1.785-2.291,3.16-5.127,4.452-7.734,1.196-2.412,1.934-5.046,3.288-7.382,1.445-2.492,3.345-3.973,5.145-6.243,2.666-3.362,4.326-7.343,6.708-10.886,2.356-3.504,5.633-6.153,8.204-9.476,4.867-6.29,7.448-14.131,11.497-20.942,2.558-4.302,5.609-8.216,8.587-12.225,1.874-2.523,3.683-5.09,5.41-7.717,1.602-2.437,3.087-4.947,4.698-7.378,2.888-4.358,5.919-8.071,10.036-11.294,2.125-1.663,4.548-2.966,6.502-4.854,2.926-2.827,4.531-4.948,7.939-7.499,3.862-2.891,6.257-7.05,10-10.054,3.778-3.031,6.472-6.941,10.107-10.047,1.924-1.644,2.72-4.172,4.469-5.742,1.342-1.205,3.215-1.319,4.615-2.336,3.86-2.804,7.066-6.671,11.077-9.635,7.729-5.712,13.898-14.868,21.571-21.152,2.615-2.142,5.497-3.49,8.537-4.983,4.949-2.432,8.259-5.089,12.519-8.548,4.185-3.398,8.829-6.137,12.666-9.993,5.545-5.572,10.575-11.585,17.041-16.24,4.418-3.18,8.584-4.443,12.465-8.344,6.004-6.034,12.97-9.308,20.2-13.674,11.89-7.181,22.722-14.599,33.642-23.117,7.632-5.953,16.284-11.351,24.175-17.148,8.117-5.963,16.554-11.815,24.68-17.653,6.083-4.37,14.258-6.222,21.119-8.938,7.052-2.791,14.657-7.63,22.565-7.535,8.901.107,18.041-.867,25.685,4.526,2.988,2.108,4.614,5.391,7.472,7.547,3.517,2.653,6.581,1.974,11.079,1.995,8.773.041,14.339-3.827,21.567-8.594,10.284-6.784,24-1.874,35.385-4.279,4.16-.879,8.325-1.109,12.53-1.779,3.707-.59,7.633.492,11.331-.17,3.595-.643,7.179-.841,10.728-1.657,3.152-.724,6.496-1.591,9.668-2.143,3.384-.589,7.006.175,10.432-.035,1.749-.107,3.284-.907,4.988-1.099,1.597-.179,3.167.272,4.778-.143,3.566-.919,6.851-2.354,10.534-3.027,3.741-.684,7.49-1.254,11.218-1.71,4.054-.495,8.034-1.492,12.13-1.929,3.607-.385,7.385-.083,11.015-.085,3.757-.002,6.9-.403,10.48-.993,2.988-.492,5.966-1.452,8.987-1.889,7.87-1.14,15.083-4.735,23.008-5.94,1.976-.3,3.917-.994,5.901-1.156,1.368-.112,2.873.346,4.22.103,1.289-.233,2.341-.953,3.677-1.099,1.495-.164,2.907.099,4.418-.166,8.336-1.463,18.295-2.064,26.606-.163,2.562.586,4.997,1.619,7.57,2.163,8.217,1.735,17.175.207,25.448.207,5.159,0,10.334.118,15.492.023,3.904-.072,7.357-1.835,11.24-2.056,14.245-.81,29.358-1.293,43.408,1.266,2.257.411,4.487.674,6.774.34,3.46-.506,6.535-2.359,9.997-2.877,5.742-.861,10.402,1.583,15.813,2.874,5.883,1.403,12.233.475,17.873,2.976,10.443,4.632,18.251,11.424,19.632,23.74.332,2.963,1.477,5.287,1.397,8.38-.081,3.129,1.226,5.374,1.429,8.385.56,8.318-.032,16.863-.032,25.209,0,5.402.735,11.377.032,16.721-.352,2.677-1.5,3.99-1.429,6.924.097,3.98-1.312,7.293-1.392,11.201-.13,6.383-.062,12.793-.01,19.176.036,4.441-1.299,8.276-1.424,12.638-.109,3.81-.028,7.671.027,11.485.078,5.344-2.537,10.128-2.821,15.364-.147,2.714.455,5.623.104,8.308-.492,3.761-2.049,7.653-3.209,11.246-.957,2.965-1.111,5.183-1.059,8.376.047,2.854-.869,4.38-1.392,6.956-1.298,6.402-4.117,10.417-9.471,14.383-4.561,3.378-7.907,6.867-11.828,10.791-1.653,1.654-3.697,2.963-5.274,4.506-2.537,2.482-3.509,6.412-5.935,9.183-3.628,4.144-5.193,8.669-5.204,14.19-.006,2.761.787,5.497,1.146,8.219.333,2.533-.308,6.116,1.897,7.972.798.671,2.521,1.065,3.557,1.112,1.996.091,3.418-.823,5.191-1.554,2.488-1.026,4.656-1.051,7.242-1.525,2.751-.504,4.495-2.221,6.921-3.44,5.005-2.513,12.241-2.716,17.816-2.066,2.93.342,5.09,1.444,8.199,1.415,2.96-.028,5.922.002,8.883.002s5.921-.032,8.88-.002c1.708.017,6.18.022,7.28-1.602.78-1.152-.04-2.624.163-3.866.232-1.423,1.047-2.753,1.481-4.127.753-2.385,1.884-4.889,2.562-7.5,1.241-4.783,3.753-9.459,4.916-14.333.552-2.315,1.804-4.984,2.101-7.516.347-2.96-.507-5.968.253-8.883.403-1.546,1.011-2.415,1.094-4.1.064-1.298-.382-2.872-.097-4.134.571-2.53,2.729-5.71,3.791-8.17,2.579-5.972,5.185-11.843,7.758-17.747,3.062-7.025,4.517-15.215,6.412-22.496.272-1.047,1.059-1.497,1.288-2.748.243-1.329-.249-2.807-.1-4.153.182-1.642.829-2.64,1.418-4.165,1.002-2.596,1.022-5.169,1.668-7.828,1.058-4.353,2.538-9.076,4.1-13.281,1.853-4.99,4.906-9.546,6.22-14.733,3.206-12.66,5.823-29.156,16.681-37.505,6.93-5.329,12.291-11.797,20.194-15.796,8.899-4.502,17.603-8.928,27.036-12.191,4.483-1.551,8.809-3.608,12.947-5.905,2.998-1.665,6.427-2.37,9.337-4.061,4.553-2.644,8.547-5.334,13.718-6.869,4.769-1.416,8.243-2.197,12.568-4.756,3.921-2.32,8.219-3.206,12.19-5.046,1.674-.775,2.604-1.869,4.399-2.505,1.896-.672,3.925-1.399,5.848-2.065,4.626-1.6,9.47.234,14.108-1.967,6.5-3.084,13.493-5.316,20.053-8.231,5.487-2.439,11.769-5.354,17.765-5.48,6.131-.129,11.286.435,17.053,1.679,3.992.861,8.23,2.09,12.365,2.505,4.521.453,7.645-.543,11.57,2.261,2.959,2.114,4.279,5.619,6.463,8.596,2.428,3.31,5.445,5.253,8.579,7.651,6.337,4.849,13.543,7.829,20.382,12.036,6.304,3.879,12.279,8.078,18.602,11.748,5.51,3.198,9.561,7.96,14.925,11.276,2.209,1.365,4.943,3.844,7.203,4.851,2.326,1.037,4.894.943,7.255,1.601,2.507.699,3.874,1.431,6.798,1.402,2.965-.03,6.258.459,9.184.1,3.685-.452,8.412-5.087,11.246-7.616,3.234-2.886,3.935-7.917,7.815-10.349,2.072-1.298,4.699-1.074,6.702-2.556,1.483-1.097,2.332-2.803,3.932-3.839,4.459-2.891,9.633-5.729,13.048-9.899,6.572-8.026,17.328-9.795,26.586-13.102,12.124-4.331,24.37-8.508,37.302-8.734,10.786-.189,21.411-4.756,32.146-5.573,2.015-.153,3.843.307,5.841-.229,1.53-.41,2.364-1.002,4.034-1.094,2.92-.162,5.921.327,8.832.08,7.297-.618,13.646-7.614,15.596-14.27,1.118-3.817,3.149-7.378,4.799-11.06s2.659-7.653,3.868-11.498c1.029-3.271,2.975-6.158,3.987-9.394.602-1.926.687-3.434,1.906-5.23,2.186-3.22,5.614-5.404,8.393-8.055,3.694-3.524,9.444-9.564,14.601-10.554,14.353-2.753,30.159-1.462,45.12-1.537,15.629-.079,29.799,3.645,44.484,8.752,6.283,2.185,12.541,4.705,18.816,6.211,3.766.904,6.285,1.745,10.42,1.71,3.846-.032,7.695.006,11.542.006,8.238,0,16.477.05,24.714.003,3.862-.022,6.763.042,10.445,1.208,5.382,1.703,9.923,1.85,15.449,2.897,4.726.896,8.959,3.12,13.692,3.9,4.382.722,8.746.093,13.127.665,9.428,1.231,18.137,4.67,27.28,6.387,19.704,3.699,39.546,6.72,59.28,10.794,9.953,2.054,20.479,4.19,30.54,5.467,7.452.945,13.866,1.726,20.341,5.419,4.675,2.666,9.166,4.887,13.72,7.882,2.409,1.585,5.31,2.366,7.592,4.12,3.064,2.355,3.239,4.205,4.078,7.603.179.725,1.148.836,1.395,1.947.698,3.15.364,5.836,1.63,8.966,1.264,3.124,2.667,5.922,3.119,9.316.656,4.932-.531,8.444-3.02,12.586-6.917,11.515-8.002,25.646-12.385,38.253-1.429,4.111-2.052,7.994-3.958,11.962-1.893,3.942-3.043,7.568-2.698,12.017.537,1.624-.674,7.711-1.571,10.654-1.578,5.181-4.641,9.797-7.124,14.568-3.872,7.439-6.385,15.07-11.347,21.84-4.227,5.767.292,16.861,7.412,17.408,2.21.17,3.6-.918,5.483-1.293,1.228-.245,2.506.063,3.728-.225,2.967-.7,4.905-3.303,7.442-4.959,2.589-1.69,5.297-3.725,7.98-5.299,3.853-2.26,8.528-2.686,12.629-4.297,8.837-3.472,15.901-10.145,24.711-13.637,10.487-4.157,21.554-11.551,30.019-19.036,7.654-6.768,17.638-10.965,25.012-18.295,3.065-3.047,5.284-6.176,9.601-6.389,4.812-.238,9.184.103,13.806,1.05,3.196.655,6.416-.095,9.636.266,2.549.286,4.786,1.625,7.269,2.683,3.093,1.317,6.331,2.668,9.258,4.165.961.491,1.67,1.363,2.681,1.891,2.007,1.048,4.359.826,6.464,1.892,6.041,3.06,12.202,7.502,17.59,11.555,6.027,4.533,12.627,8.544,18.051,13.821,3.013,2.931,6.401,5.117,9.335,7.997,1.345,1.32,2.525,2.603,4.032,3.74,1.787,1.348,1.99,2.043,3.417,3.667,2.725,3.101,7.182,5.258,10.428,7.962,3.237,2.697,6.541,4.843,10.124,7.04,6.326,3.879,13.215,6.989,19.501,10.929,7.093,4.446,13.183,11.347,19.014,17.215,3.384,3.405,6.779,6.749,9.598,10.6,1.554,2.122,3.098,4.964,4.57,7.563,3.673,6.482,12.5,10.093,12.662,17.913.102,4.925-.004,9.86.005,14.786.005,2.995.496,6.072-1.288,8.694-2.242,3.295-6.012,5.721-8.112,9.296-1.925,3.278-4.018,6.221-5.566,9.623-2.094,4.604-6.016,8.081-9.038,12.066-2.637,3.477-6.532,4.782-9.038,8.312-2.231,3.142-4.718,6.155-6.96,9.321-2.135,3.015-4.843,4.787-7.329,7.458-4.791,5.149-9.869,9.269-15.85,13.13-5.258,3.394-11.547,3.769-17.268,6.12-6.615,2.717-14.046.673-20.186-2.648-6.218-3.363-12.07-7.41-18.122-10.754-5.338-2.95-8.265-7.92-11.267-13.134-3.658-6.356-8.227-8.15-15.336-8.168-3.444-.009-5.111.033-7.933,1.668-2.788,1.616-5.845,2.901-8.735,4.333-4.806,2.381-9.978,5.324-12.667,10.002-2.151,3.742-2.243,12.18-1.224,16.556.213.916,1.051.987,1.293,2.045.147.644-.225,1.405-.11,2.056.258,1.465.855,2.599,1.243,4.027.69,2.537.997,4.727,1.726,7.326.879,3.135,3.884,6.143,5.434,9.029.978,1.82,2.138,3.691,2.968,5.623,2.657,6.179,6.312,11.963,8.965,18.318,3.571,8.554,6.791,17.352,10.707,25.735,2.849,6.099,6.639,12.074,9.815,18.1,1.626,3.085,3.533,5.837,4.39,9.224.325,1.285.2,2.201.744,3.368.446.957,1.582,1.521,2.086,2.584,1.017,2.146,1.755,5.585,2.342,8.035.786,3.28,1.378,5.537,2.962,8.681,1.81,3.596,3.257,3.591,6.666,5.284,2.246,1.116,4.69,2.583,6.965,3.074,10.082,2.178,20.703-.829,30.912,1.042,3.158.579,6.172,1.667,9.27,2.48,9.058,2.376,18.563,2.699,27.864,2.61,2.862-.028,5.627.543,8.397.936,1.554.22,2.941.947,4.507,1.086,1.712.153,3.321-.228,5.029.182,4.168,1.001,9.368,1.393,13.219,3.241,1.215.583,2.218,1.511,3.484,2.002,3.546,1.373,6.88.239,8.859,4.481.976,2.093,1.67,4.421,1.708,6.709.053,3.216.985,5.847.963,9.186-.048,7.171-.989,13.934-.989,21.112Z" stroke="#000" stroke-miterlimit="10"/>
    </g>
  </g>
</svg>